<svg xmlns="http://www.w3.org/2000/svg" width="512" height="512" viewBox="0 0 512 512" role="img" aria-label="Nonogram logo">
  <defs>
    <linearGradient id="paperLogo" x1="10%" y1="4%" x2="92%" y2="96%">
      <stop offset="0%" stop-color="#f8f1dd" />
      <stop offset="55%" stop-color="#efdcb6" />
      <stop offset="100%" stop-color="#e3c896" />
    </linearGradient>
    <radialGradient id="inkWash" cx="35%" cy="28%" r="80%">
      <stop offset="0%" stop-color="#ffffff" stop-opacity="0.28" />
      <stop offset="100%" stop-color="#ffffff" stop-opacity="0" />
    </radialGradient>
    <pattern id="paperDust" width="24" height="24" patternUnits="userSpaceOnUse">
      <circle cx="5" cy="4" r="1.1" fill="#6d4d2c" fill-opacity="0.07" />
      <circle cx="17" cy="11" r="0.9" fill="#6d4d2c" fill-opacity="0.06" />
      <circle cx="9" cy="18" r="1" fill="#6d4d2c" fill-opacity="0.05" />
    </pattern>
  </defs>

  <rect width="512" height="512" rx="96" fill="url(#paperLogo)" />
  <rect width="512" height="512" rx="96" fill="url(#paperDust)" />
  <rect width="512" height="512" rx="96" fill="url(#inkWash)" />

  <rect x="38" y="38" width="436" height="436" rx="82" fill="none" stroke="#722c22" stroke-width="16" />
  <rect x="58" y="58" width="396" height="396" rx="68" fill="none" stroke="#bb8e52" stroke-width="6" stroke-opacity="0.65" />

  <g transform="translate(0 -6)">
    <rect x="104" y="94" width="304" height="304" rx="32" fill="#fff8e9" stroke="#b18448" stroke-width="8" />

    <g fill="#6b4625" fill-opacity="0.64">
      <rect x="130" y="68" width="32" height="14" rx="4" />
      <rect x="168" y="68" width="32" height="14" rx="4" />
      <rect x="206" y="68" width="70" height="14" rx="4" />
      <rect x="282" y="68" width="32" height="14" rx="4" />

      <rect x="72" y="126" width="20" height="28" rx="4" />
      <rect x="72" y="164" width="20" height="54" rx="4" />
      <rect x="72" y="228" width="20" height="20" rx="4" />
      <rect x="72" y="256" width="20" height="68" rx="4" />
    </g>

    <g stroke="#6f4b2a" stroke-opacity="0.42" stroke-width="3">
      <line x1="104" y1="94" x2="104" y2="398" />
      <line x1="142" y1="94" x2="142" y2="398" />
      <line x1="180" y1="94" x2="180" y2="398" />
      <line x1="218" y1="94" x2="218" y2="398" />
      <line x1="256" y1="94" x2="256" y2="398" />
      <line x1="294" y1="94" x2="294" y2="398" />
      <line x1="332" y1="94" x2="332" y2="398" />
      <line x1="370" y1="94" x2="370" y2="398" />
      <line x1="408" y1="94" x2="408" y2="398" />

      <line x1="104" y1="94" x2="408" y2="94" />
      <line x1="104" y1="132" x2="408" y2="132" />
      <line x1="104" y1="170" x2="408" y2="170" />
      <line x1="104" y1="208" x2="408" y2="208" />
      <line x1="104" y1="246" x2="408" y2="246" />
      <line x1="104" y1="284" x2="408" y2="284" />
      <line x1="104" y1="322" x2="408" y2="322" />
      <line x1="104" y1="360" x2="408" y2="360" />
      <line x1="104" y1="398" x2="408" y2="398" />
    </g>

    <g fill="#8a2f23">
      <rect x="224" y="136" width="26" height="26" rx="4" />

      <rect x="186" y="174" width="26" height="26" rx="4" />
      <rect x="224" y="174" width="26" height="26" rx="4" />
      <rect x="262" y="174" width="26" height="26" rx="4" />

      <rect x="148" y="212" width="26" height="26" rx="4" />
      <rect x="186" y="212" width="26" height="26" rx="4" />
      <rect x="224" y="212" width="26" height="26" rx="4" />
      <rect x="262" y="212" width="26" height="26" rx="4" />
      <rect x="300" y="212" width="26" height="26" rx="4" />

      <rect x="148" y="250" width="26" height="26" rx="4" />
      <rect x="224" y="250" width="26" height="26" rx="4" />
      <rect x="300" y="250" width="26" height="26" rx="4" />

      <rect x="148" y="288" width="26" height="26" rx="4" />
      <rect x="186" y="288" width="26" height="26" rx="4" />
      <rect x="224" y="288" width="26" height="26" rx="4" />
      <rect x="262" y="288" width="26" height="26" rx="4" />
      <rect x="300" y="288" width="26" height="26" rx="4" />

      <rect x="186" y="326" width="26" height="26" rx="4" />
      <rect x="224" y="326" width="26" height="26" rx="4" />
      <rect x="262" y="326" width="26" height="26" rx="4" />
    </g>
  </g>

  <path
    d="M118 176 C138 114 202 74 280 78 C354 82 414 136 426 210"
    fill="none"
    stroke="#2f1d12"
    stroke-width="16"
    stroke-linecap="round"
  />
  <path
    d="M426 210 C438 280 408 354 346 396 C278 442 194 434 138 378 C96 336 86 282 96 236"
    fill="none"
    stroke="#2f1d12"
    stroke-width="16"
    stroke-linecap="round"
  />

  <g>
    <rect x="348" y="338" width="86" height="86" rx="12" fill="#a4342b" fill-opacity="0.92" />
    <path
      d="M372 362 L410 362 L410 398 L372 398 Z M380 370 L402 370 L402 390 L380 390 Z"
      fill="#f7e6c6"
      fill-rule="evenodd"
    />
    <path d="M364 348 C370 352 378 352 384 348" fill="none" stroke="#f7e6c6" stroke-width="4" stroke-linecap="round" />
  </g>
</svg>
